<svg width="5.260498" height="9.646820" viewBox="0 0 5.2605 9.64682" fill="none" xmlns="http://www.w3.org/2000/svg" xmlns:xlink="http://www.w3.org/1999/xlink">
	<desc>
			Created with Pixso.
	</desc>
	<defs/>
	<path id="Vector" d="M5.13257 5.13257C5.2146 5.05054 5.2605 4.93936 5.2605 4.82343C5.2605 4.70749 5.2146 4.59628 5.13257 4.51425L0.757568 0.139252C0.717529 0.0962524 0.669189 0.0617981 0.615479 0.0378723C0.561768 0.0139771 0.503906 0.00109863 0.445068 6.10352e-05C0.386475 -0.000976562 0.328125 0.00982666 0.273682 0.0318298C0.219238 0.053833 0.169678 0.0866089 0.128174 0.128143C0.0866699 0.169678 0.0537109 0.219177 0.0317383 0.273651C0.00976562 0.328125 -0.000976562 0.386475 0 0.445221C0.000976562 0.503967 0.013916 0.56189 0.0378418 0.61557C0.0617676 0.66922 0.0961914 0.717529 0.13916 0.757568L4.20508 4.82343L0.13916 8.88925C0.0961914 8.92929 0.0617676 8.9776 0.0378418 9.03125C0.013916 9.08493 0.000976562 9.14285 0 9.2016C-0.000976562 9.26035 0.00976562 9.3187 0.0317383 9.37317C0.0537109 9.42764 0.0866699 9.47714 0.128174 9.51868C0.169678 9.56024 0.219238 9.59299 0.273682 9.61499C0.328125 9.63699 0.386475 9.6478 0.445068 9.64676C0.503906 9.64572 0.561768 9.63287 0.615479 9.60895C0.669189 9.58505 0.717529 9.55057 0.757568 9.50757L5.13257 5.13257Z" fill="#407BFF" fill-opacity="1.000000" fill-rule="evenodd"/>
</svg>
