<svg xmlns="http://www.w3.org/2000/svg" width="16" height="16" fill="none"><path stroke="#EF5050" stroke-linecap="round" stroke-linejoin="round" d="m9.827 6-.231 6m-3.192 0-.23-6m6.645-2.14c.228.035.454.071.681.11m-.681-.11-.712 9.255A1.5 1.5 0 0 1 10.61 14.5H5.389a1.5 1.5 0 0 1-1.496-1.385L3.181 3.86m9.638 0a32.074 32.074 0 0 0-2.319-.265m-7.319.265c-.228.034-.454.07-.681.11m.681-.11c.77-.116 1.543-.205 2.319-.265m5 0v-.61c0-.787-.607-1.443-1.393-1.468a34.65 34.65 0 0 0-2.214 0C6.107 1.542 5.5 2.2 5.5 2.985v.61m5 0a32.446 32.446 0 0 0-5 0"/></svg>