<svg xmlns="http://www.w3.org/2000/svg" width="26" height="26" fill="none"><path fill="#407BFF" d="m4.522 2.26 1.544 21.42v.06h13.298L20.91 2.327V2.26H4.522ZM18.818 23.14H6.617L5.458 7.095h.637l1.048 14.14c.006.074.04.143.093.194.054.051.125.08.198.08h.025a.287.287 0 0 0 .2-.1.296.296 0 0 0 .071-.216L6.683 7.095h13.293l-1.158 16.044Zm1.2-16.644H6.637l-.23-3.126a.306.306 0 0 0-.1-.198.297.297 0 0 0-.205-.077.299.299 0 0 0-.2.105.307.307 0 0 0-.07.216l.23 3.084h-.646l-.263-3.642H20.28l-.263 3.638Z"/><path fill="#407BFF" d="M9.23 10.062a.96.96 0 0 0 .538-.166.997.997 0 0 0 .147-1.513.965.965 0 0 0-1.056-.213.973.973 0 0 0-.436.362.994.994 0 0 0 .121 1.242.963.963 0 0 0 .686.288Zm0-1.371a.378.378 0 0 1 .352.24.393.393 0 0 1-.082.422.38.38 0 0 1-.653-.274.39.39 0 0 1 .112-.274.38.38 0 0 1 .27-.114ZM9.225 13.258a.993.993 0 0 0 .17.544.956.956 0 0 0 1.491.134.989.989 0 0 0 .202-1.072.98.98 0 0 0-.359-.439.96.96 0 0 0-1.434.454.996.996 0 0 0-.07.38Zm1.348 0a.391.391 0 0 1-.236.358.377.377 0 0 1-.416-.084.39.39 0 0 1 .27-.661.38.38 0 0 1 .27.113.39.39 0 0 1 .112.274ZM16.115 13.283a.96.96 0 0 0 .538-.165.997.997 0 0 0 .147-1.513.965.965 0 0 0-1.056-.214.972.972 0 0 0-.435.363.993.993 0 0 0 .12 1.241.962.962 0 0 0 .686.288Zm0-1.367a.378.378 0 0 1 .353.24.393.393 0 0 1-.085.424.38.38 0 0 1-.65-.28.39.39 0 0 1 .113-.272.38.38 0 0 1 .269-.112ZM12.738 11.429a.96.96 0 0 0 .539-.166.996.996 0 0 0 .147-1.513.966.966 0 0 0-1.057-.213.973.973 0 0 0-.435.362.994.994 0 0 0 .12 1.242.963.963 0 0 0 .686.288Zm0-1.371a.378.378 0 0 1 .353.24.393.393 0 0 1-.083.421.381.381 0 0 1-.416.085.383.383 0 0 1-.236-.359.393.393 0 0 1 .104-.287.384.384 0 0 1 .278-.121v.02ZM10.89 17.005a.82.82 0 0 0 .144.445.79.79 0 0 0 1.23.1.817.817 0 0 0 .164-.882.812.812 0 0 0-.295-.361.794.794 0 0 0-.443-.136.816.816 0 0 0-.567.252.84.84 0 0 0-.234.582Zm.8-.217a.211.211 0 0 1 .198.134.22.22 0 0 1-.047.236.213.213 0 0 1-.364-.153c0-.058.022-.113.062-.153a.212.212 0 0 1 .151-.064ZM14.763 16.1a.814.814 0 0 0 .781-.498.844.844 0 0 0-.168-.92.818.818 0 0 0-.906-.181.825.825 0 0 0-.369.315.842.842 0 0 0 .107 1.038c.147.15.346.24.555.247Zm0-1.029c.057 0 .111.023.151.064a.218.218 0 0 1 0 .306.212.212 0 0 1-.303 0 .222.222 0 0 1-.065-.153.22.22 0 0 1 .064-.155.214.214 0 0 1 .153-.062ZM16.456 9.374a.813.813 0 0 0 .456-.14.845.845 0 0 0 .125-1.282.818.818 0 0 0-.896-.181.825.825 0 0 0-.368.307.842.842 0 0 0 .102 1.052.816.816 0 0 0 .58.244Zm0-1.029a.21.21 0 0 1 .187.035.215.215 0 0 1 .085.173.218.218 0 0 1-.085.173.212.212 0 0 1-.187.036.21.21 0 0 1-.25-.112.218.218 0 0 1 .152-.31.21.21 0 0 1 .098.005ZM8.424 22.093a.297.297 0 0 0-.17.3c.003.04.015.08.035.117a.304.304 0 0 0 .263.162.275.275 0 0 0 .131-.029 8.86 8.86 0 0 1 4.055-1c1.492.022 2.964.358 4.322.988a.292.292 0 0 0 .336-.044.301.301 0 0 0 .075-.336.307.307 0 0 0-.157-.166 11.207 11.207 0 0 0-4.576-1.042 9.43 9.43 0 0 0-4.314 1.05Z"/></svg>