<?xml version="1.0" standalone="no"?>
<!DOCTYPE svg PUBLIC "-//W3C//DTD SVG 20010904//EN"
 "http://www.w3.org/TR/2001/REC-SVG-20010904/DTD/svg10.dtd">
<svg version="1.0" xmlns="http://www.w3.org/2000/svg"
 width="768.000000pt" height="768.000000pt" viewBox="0 0 768.000000 768.000000"
 preserveAspectRatio="xMidYMid meet">
<metadata>
Created by potrace 1.14, written by Peter Selinger 2001-2017
</metadata>
<g transform="translate(0.000000,768.000000) scale(0.100000,-0.100000)"
fill="#000000" stroke="none">
<path d="M3523 7639 c-65 -22 -147 -41 -187 -44 -134 -12 -205 -45 -241 -114
-33 -64 -13 -147 46 -190 33 -25 111 -33 169 -19 19 5 52 14 74 19 35 9 42 7
92 -26 71 -47 145 -63 221 -47 179 37 266 174 203 319 -40 94 -120 145 -219
141 -23 -1 -94 -18 -158 -39z"/>
<path d="M3460 7083 c-68 -11 -152 -47 -193 -83 -53 -47 -79 -104 -79 -177 -1
-148 130 -194 367 -127 104 29 212 -22 261 -124 24 -50 28 -67 27 -132 0 -71
-17 -102 -98 -187 -104 -109 -118 -149 -100 -299 12 -109 -19 -145 -205 -235
-263 -128 -310 -152 -310 -159 0 -4 -12 -12 -26 -19 -46 -20 -175 -125 -258
-207 -109 -109 -221 -280 -271 -415 -21 -58 -66 -108 -130 -144 -54 -31 -187
-116 -195 -125 -3 -3 -38 -31 -78 -63 -40 -32 -91 -77 -113 -100 -39 -40 -119
-141 -119 -151 0 -2 -19 -37 -42 -78 -43 -75 -88 -135 -146 -198 -43 -44 -93
-116 -86 -122 2 -3 -2 -11 -11 -18 -8 -7 -15 -18 -15 -24 0 -6 -6 -23 -14 -37
-18 -36 -64 -178 -81 -254 -2 -5 -8 -30 -16 -55 -7 -25 -14 -52 -15 -62 -6
-29 -45 -127 -53 -132 -4 -3 -17 2 -29 10 -17 12 -21 24 -19 52 1 21 6 43 10
50 5 6 6 12 3 12 -5 0 16 67 33 105 5 11 21 52 36 90 15 39 31 79 36 90 11 26
31 80 29 80 -1 0 4 14 10 30 40 103 42 266 5 350 -39 87 -107 121 -203 101
-32 -7 -101 -56 -126 -89 -24 -33 -30 -111 -14 -179 15 -61 16 -77 7 -125 -13
-69 -45 -126 -97 -175 -59 -56 -122 -131 -122 -147 0 -6 -5 -11 -12 -11 -6 0
-9 -3 -5 -6 3 -4 -1 -21 -10 -38 -34 -64 -51 -154 -48 -249 4 -100 7 -124 32
-195 21 -62 21 -148 1 -192 -18 -39 -44 -114 -54 -157 -3 -15 -7 -72 -9 -126
-2 -105 17 -202 57 -281 18 -35 93 -151 108 -166 13 -13 60 -89 74 -121 11
-23 18 -72 20 -140 5 -123 19 -174 85 -300 27 -52 52 -110 55 -129 14 -85 36
-131 85 -181 31 -30 153 -124 182 -140 11 -6 28 -17 37 -24 9 -7 46 -37 82
-65 101 -80 111 -100 186 -380 21 -77 63 -157 99 -188 51 -43 88 -52 223 -57
70 -2 150 -6 177 -10 50 -6 176 -38 224 -57 14 -6 35 -14 46 -18 11 -4 36 -15
55 -23 273 -117 353 -150 455 -186 66 -24 129 -47 140 -52 21 -9 188 -57 221
-63 11 -2 37 -9 59 -14 22 -6 56 -13 75 -16 19 -3 46 -8 60 -12 14 -3 86 -7
160 -9 163 -4 218 9 370 82 173 85 267 109 455 118 314 14 419 34 573 106 35
16 65 29 67 29 9 0 150 85 153 92 2 4 10 8 18 8 8 0 14 5 14 10 0 6 5 10 11
10 6 0 45 26 87 58 77 59 78 59 172 70 177 19 284 81 339 194 36 74 45 111 56
228 8 94 16 113 75 190 77 100 111 161 138 242 20 61 25 89 37 207 3 26 16 61
32 84 62 89 75 111 90 151 21 56 26 253 9 334 -7 34 -12 62 -9 62 2 0 -1 8 -6
19 -6 10 -13 33 -16 52 -3 19 -21 79 -40 134 -37 108 -50 158 -59 219 -4 21
-8 41 -10 45 -2 3 -7 31 -10 61 -4 30 -9 70 -11 88 -23 176 -33 524 -20 657
18 170 19 175 54 277 37 105 42 131 46 231 4 90 -15 189 -47 256 -23 49 -30
59 -65 97 -12 13 -20 24 -17 24 3 0 -9 12 -28 27 -18 15 -35 30 -38 33 -15 15
-63 33 -89 32 -55 -1 -108 -44 -132 -107 -7 -16 -20 -41 -30 -55 -9 -14 -17
-29 -17 -35 -1 -20 -30 -29 -54 -17 -35 19 -66 74 -87 154 -28 106 -32 142
-45 468 -7 147 -13 186 -38 235 -28 56 -69 89 -168 138 -47 23 -90 47 -96 52
-26 25 -35 59 -33 133 5 252 2 316 -18 362 -41 93 -111 148 -218 173 -140 33
-269 -14 -311 -112 -15 -34 -21 -132 -10 -176 2 -11 11 -50 20 -86 34 -146 40
-189 28 -189 -33 0 -72 25 -84 53 -18 43 -16 192 6 397 7 70 20 246 20 280 0
58 -13 164 -25 201 -17 52 -66 155 -86 180 -29 37 -125 132 -161 159 -37 28
-134 102 -179 137 -15 12 -41 34 -58 49 -67 59 -131 94 -205 111 -35 9 -104 3
-214 -18 -70 -13 -113 -11 -147 7 -81 42 -306 73 -409 57z"/>
<path d="M2695 6876 c-68 -18 -104 -47 -132 -104 -44 -89 -28 -181 44 -248 45
-43 153 -68 179 -41 4 4 14 7 23 7 24 0 81 58 102 104 67 147 -67 321 -216
282z"/>
<path d="M5094 6878 c-23 -5 -54 -21 -71 -38 -93 -91 -90 -227 7 -344 23 -28
40 -59 41 -75 0 -14 2 -33 4 -41 1 -8 5 -32 9 -53 22 -135 104 -194 231 -163
11 2 23 5 27 5 19 2 83 79 104 126 34 75 38 95 39 210 0 85 -3 107 -23 148
-66 132 -255 248 -368 225z"/>
<path d="M3199 6570 c-87 -25 -108 -75 -84 -200 2 -14 11 -59 20 -99 15 -77
14 -139 -6 -198 l-11 -33 -41 46 c-89 100 -223 118 -305 41 -40 -37 -48 -59
-76 -207 -10 -53 -15 -69 -26 -92 -14 -25 -103 -114 -170 -168 -296 -238 -408
-380 -452 -575 -13 -54 -15 -125 -5 -181 10 -62 67 -132 126 -156 35 -14 105
-13 144 3 37 14 107 86 107 109 0 9 5 21 10 26 17 17 22 53 25 174 4 180 25
242 114 330 68 68 215 143 293 150 4 0 26 7 48 15 22 8 41 14 43 14 1 0 11 3
22 7 283 99 500 382 498 650 -2 192 -151 379 -274 344z"/>
<path d="M2028 6021 c-41 -26 -75 -69 -110 -138 -54 -109 -38 -190 44 -219 94
-32 199 92 199 236 0 59 -3 69 -30 99 -33 37 -68 44 -103 22z"/>
<path d="M6000 5573 c-70 -14 -116 -106 -99 -199 9 -48 70 -147 120 -196 45
-44 48 -57 46 -204 -2 -170 13 -225 70 -264 48 -33 128 -33 196 0 68 32 142
110 162 169 18 55 15 87 -16 155 -11 26 -22 57 -25 69 -2 12 -6 33 -9 47 -3
14 -10 50 -15 81 -20 116 -61 204 -120 256 -28 25 -113 70 -150 80 -34 8 -129
12 -160 6z"/>
<path d="M1580 5193 c-11 -14 -20 -28 -21 -32 -2 -18 -8 -39 -20 -66 -7 -16
-13 -32 -14 -35 -16 -46 -40 -82 -102 -146 -82 -86 -98 -180 -46 -275 40 -75
89 -104 172 -104 72 1 108 15 155 62 59 58 109 166 119 259 7 56 -10 138 -40
198 -29 57 -111 140 -154 155 -25 9 -31 7 -49 -16z"/>
<path d="M6555 3793 c-16 -15 -16 -48 0 -72 26 -43 37 -165 21 -246 -4 -16 -9
-52 -12 -79 -3 -27 -9 -59 -13 -70 -5 -12 -8 -91 -7 -176 1 -124 5 -166 20
-210 31 -91 77 -150 141 -182 132 -68 247 8 288 189 22 96 14 181 -23 253 -12
24 -24 69 -27 99 -8 116 -29 229 -45 248 -6 7 -8 13 -4 13 12 0 -45 94 -77
128 -37 39 -101 79 -160 100 -60 21 -85 22 -102 5z"/>
<path d="M6764 2453 c-54 -32 -61 -37 -90 -83 -24 -39 -28 -55 -29 -120 0
-113 39 -179 129 -220 95 -44 214 19 252 132 17 52 14 135 -8 184 -17 38 -78
101 -112 114 -41 15 -108 12 -142 -7z"/>
<path d="M801 2040 c-73 -24 -132 -78 -152 -138 -15 -46 -3 -126 27 -178 26
-44 119 -134 139 -134 20 0 42 -32 100 -145 75 -146 109 -198 148 -228 84 -64
180 20 163 141 -3 25 -31 102 -62 170 -41 95 -58 148 -69 216 -22 142 -49 210
-102 256 -62 54 -117 66 -192 40z"/>
</g>
</svg>
